<?xml version="1.0" standalone="no"?>
<!DOCTYPE svg PUBLIC "-//W3C//DTD SVG 20010904//EN"
 "http://www.w3.org/TR/2001/REC-SVG-20010904/DTD/svg10.dtd">
<svg version="1.0" xmlns="http://www.w3.org/2000/svg"
 width="96.000000pt" height="96.000000pt" viewBox="0 0 96.000000 96.000000"
 preserveAspectRatio="xMidYMid meet">
<metadata>
Created by potrace 1.11, written by Peter Selinger 2001-2013
</metadata>
<g transform="translate(0.000000,96.000000) scale(0.100000,-0.100000)"
fill="#000000" stroke="none">
<path d="M464 882 c-62 -5 -102 -62 -43 -62 12 0 19 -7 19 -20 0 -12 -7 -20
-17 -20 -10 0 -35 -3 -55 -6 -32 -6 -38 -4 -38 11 0 10 7 23 17 30 28 21 9 45
-37 45 -30 0 -47 -7 -65 -25 -29 -29 -33 -65 -7 -65 9 0 22 -8 29 -19 10 -16
8 -22 -13 -40 -34 -30 -54 -27 -54 7 0 35 -6 41 -29 35 -20 -5 -61 -75 -61
-104 0 -20 34 -27 45 -9 13 21 26 -3 20 -33 -10 -47 -23 -56 -43 -30 -13 16
-22 19 -39 12 -26 -9 -25 -8 -28 -67 -2 -32 2 -45 16 -52 26 -15 36 -12 42 10
9 34 34 23 45 -19 11 -45 -1 -57 -42 -41 -19 7 -28 5 -41 -10 -15 -17 -16 -24
-5 -52 18 -45 29 -58 51 -58 12 0 21 10 25 25 9 36 38 31 62 -9 19 -32 19 -35
4 -42 -9 -4 -28 -8 -42 -8 -38 -1 -40 -47 -4 -75 32 -25 57 -24 63 4 6 36 32
45 62 23 32 -24 29 -47 -6 -41 -16 4 -25 0 -29 -15 -10 -29 2 -49 36 -61 55
-19 66 -15 70 27 3 32 7 37 29 40 17 2 29 -3 32 -12 4 -10 1 -16 -8 -16 -25 0
-37 -36 -19 -54 36 -37 126 -7 104 34 -15 29 -12 37 15 42 33 7 50 -20 29 -43
-25 -27 -7 -51 35 -46 39 4 81 23 81 36 0 4 -11 17 -25 29 -33 29 -31 43 6 65
37 21 59 9 51 -28 -6 -35 20 -42 62 -16 51 32 65 81 22 81 -34 0 -49 22 -35
52 13 30 50 27 64 -5 6 -11 15 -22 21 -24 12 -4 37 46 37 75 0 41 -2 42 -43
36 -39 -6 -39 -6 -35 24 2 18 6 36 10 42 8 14 38 13 53 -2 8 -8 15 -8 26 1 19
16 13 89 -9 110 -15 15 -18 13 -39 -11 -28 -36 -39 -35 -54 5 -18 50 -16 55
31 68 23 7 46 16 51 20 9 8 -24 68 -48 88 -20 16 -46 3 -46 -24 0 -13 -10 -29
-23 -38 -21 -14 -25 -12 -59 22 -30 30 -35 40 -27 59 8 22 18 26 52 23 11 -2
17 5 17 19 0 21 -21 50 -37 50 -4 0 -19 9 -32 19 -13 10 -32 16 -42 14 -21 -6
-26 -42 -8 -60 9 -9 8 -18 -4 -37 -16 -24 -17 -24 -57 -9 -43 17 -53 45 -24
61 12 7 15 17 10 35 -7 29 -17 33 -72 29z"/>
</g>
</svg>
